<?xml version="1.0" encoding="UTF-8" standalone="no"?>
<svg
   width="24"
   height="24"
   viewBox="0 0 24 24"
   fill="none"
   stroke="currentColor"
   stroke-width="2"
   stroke-linecap="round"
   stroke-linejoin="round"
   class="feather feather-feather"
   version="1.1"
   id="svg2"
   sodipodi:docname="logo.svg"
   inkscape:version="1.4.2 (unknown)"
   xmlns:inkscape="http://www.inkscape.org/namespaces/inkscape"
   xmlns:sodipodi="http://sodipodi.sourceforge.net/DTD/sodipodi-0.dtd"
   xmlns="http://www.w3.org/2000/svg"
   xmlns:svg="http://www.w3.org/2000/svg">
  <defs
     id="defs2" />
  <sodipodi:namedview
     id="namedview2"
     pagecolor="#ffffff"
     bordercolor="#000000"
     borderopacity="0.25"
     inkscape:showpageshadow="2"
     inkscape:pageopacity="0.0"
     inkscape:pagecheckerboard="0"
     inkscape:deskcolor="#d1d1d1"
     inkscape:zoom="33.291667"
     inkscape:cx="12.015019"
     inkscape:cy="12"
     inkscape:window-width="1920"
     inkscape:window-height="1008"
     inkscape:window-x="0"
     inkscape:window-y="0"
     inkscape:window-maximized="1"
     inkscape:current-layer="svg2" />
  <path
     d="M20.24 12.24a6 6 0 0 0-8.49-8.49L5 10.5V19h8.5z"
     id="path1" />
  <line
     x1="16"
     y1="8"
     x2="2"
     y2="22"
     id="line1" />
  <line
     x1="17.5"
     y1="15"
     x2="9"
     y2="15"
     id="line2" />
  <path
     style="fill:#800080;stroke-width:0.0600751"
     d="M 6.0075094,13.7526 V 10.939564 L 9.3341677,7.6143346 C 11.16383,5.7854587 12.755444,4.2113175 12.871089,4.1162432 c 0.501076,-0.411947 1.080678,-0.7141834 1.735567,-0.9050195 1.716001,-0.5000462 3.541761,-0.049933 4.823299,1.1891108 0.752125,0.7271847 1.209503,1.5309021 1.427611,2.5086377 0.252721,1.1328922 0.09718,2.3376607 -0.434026,3.3617158 -0.338364,0.652301 -0.461576,0.796966 -1.978136,2.322554 l -1.395946,1.404255 h -2.809861 -2.809861 l 2.721188,-2.725908 c 3.078698,-3.0840383 2.864701,-2.8352012 2.84548,-3.3087362 -0.008,-0.1980595 -0.02757,-0.2930313 -0.08385,-0.4076264 -0.09352,-0.1904602 -0.277119,-0.3741155 -0.467783,-0.4679393 -0.128472,-0.063219 -0.19149,-0.073483 -0.44978,-0.073258 -0.255668,2.229e-4 -0.320494,0.01069 -0.435545,0.070323 -0.09519,0.049338 -1.527873,1.4619449 -4.843554,4.7756719 l -4.7083856,4.705611 z"
     id="path2" />
  <path
     style="fill:#bd93f9;stroke-width:0.0600751;fill-opacity:1"
     d="m 8.4255319,17.001252 0.9908977,-0.991239 h 2.8077394 2.807739 l -0.975278,0.986816 -0.975278,0.986817 -2.823359,0.0044 -2.8233588,0.0044 z"
     id="path3" />
  <path
     style="fill:#bd93f9;fill-opacity:1;stroke-width:0.0600751"
     d="M 8.4931013,16.993742 9.4464565,16.04005 h 2.7485525 2.748552 l -0.946123,0.944515 -0.946124,0.944516 -2.755784,0.0092 -2.7557838,0.0092 z"
     id="path4" />
  <path
     style="fill:#bd93f9;fill-opacity:1;stroke-width:0.0600751"
     d="M 6.0375469,13.724225 V 10.972936 L 9.4277254,7.5919849 C 11.654249,5.3715219 12.902231,4.1485095 13.06358,4.028876 c 0.673946,-0.4997002 1.504023,-0.8294942 2.356383,-0.9362032 0.406734,-0.05092 1.176915,-0.021472 1.556014,0.059494 1.797168,0.3838308 3.295883,1.7785837 3.766833,3.5055387 0.336938,1.2355363 0.21389,2.4425194 -0.36534,3.5836265 -0.329938,0.649992 -0.507754,0.853486 -2.488207,2.847529 l -0.872611,0.878598 h -2.747113 -2.747112 l 2.554319,-2.560701 C 15.481622,9.998373 16.71393,8.7409538 16.815209,8.6124937 17.040315,8.326973 17.067784,8.236314 17.032479,7.8954056 17.001062,7.5920447 16.933363,7.4399174 16.746723,7.253277 16.539305,7.0458593 16.401936,6.9893266 16.070088,6.9748163 15.603228,6.9544022 15.608574,6.9514582 14.94924,7.5919945 14.632289,7.8999082 12.497497,10.024665 10.205257,12.313675 l -4.1677101,4.161838 z"
     id="path5" />
  <path
     style="fill:#bd93f9;fill-opacity:1;stroke-width:0.0600751"
     d="M 6.0675845,13.696996 V 11.008592 L 8.057572,9.0239225 C 11.26726,5.8228129 12.913479,4.208555 13.139904,4.040264 13.594564,3.7023368 14.173429,3.4290893 14.761,3.2750429 c 0.538044,-0.1410617 0.734515,-0.1610027 1.406405,-0.1427443 0.513626,0.013958 0.655425,0.028311 0.90894,0.092009 0.901736,0.2265664 1.64912,0.6428509 2.323169,1.2939785 0.705601,0.681607 1.175832,1.5405694 1.390794,2.5405378 0.05814,0.2704827 0.06783,0.4052174 0.06804,0.9461828 2.22e-4,0.5855675 -0.0058,0.6566288 -0.08389,0.991239 -0.104182,0.446351 -0.246569,0.8348642 -0.458602,1.2513393 -0.293162,0.575827 -0.421312,0.724779 -2.094752,2.434786 l -1.228211,1.255051 H 14.301277 11.609666 L 13.788934,11.75219 C 16.419447,9.1144803 16.87905,8.6411739 16.98434,8.4615094 17.189336,8.1117098 17.076338,7.4824992 16.756655,7.1936849 16.539969,6.9979221 16.423021,6.9573927 16.037272,6.9443757 c -0.314722,-0.01062 -0.36089,-0.00528 -0.480049,0.055509 -0.1726,0.088054 -0.483199,0.392995 -5.366985,5.2692333 L 6.0675845,16.3854 Z"
     id="path6" />
</svg>
